<svg width="44" height="44" viewBox="0 0 44 44" fill="none" xmlns="http://www.w3.org/2000/svg">
<path d="M22 21.9542C19.9834 21.9542 18.3334 21.3125 17.05 20.0292C15.7667 18.7458 15.125 17.0958 15.125 15.0792C15.125 13.0625 15.7667 11.4125 17.05 10.1292C18.3334 8.84583 19.9834 8.20416 22 8.20416C24.0167 8.20416 25.6667 8.84583 26.95 10.1292C28.2334 11.4125 28.875 13.0625 28.875 15.0792C28.875 17.0958 28.2334 18.7458 26.95 20.0292C25.6667 21.3125 24.0167 21.9542 22 21.9542ZM7.33337 36.6667V32.3583C7.33337 31.1972 7.62365 30.2042 8.20421 29.3792C8.78476 28.5542 9.53337 27.9278 10.45 27.5C12.4973 26.5833 14.4605 25.8958 16.3396 25.4375C18.2188 24.9792 20.1056 24.75 22 24.75C23.8945 24.75 25.7737 24.9868 27.6375 25.4604C29.5014 25.934 31.457 26.6139 33.5042 27.5C34.4514 27.9278 35.2153 28.5542 35.7959 29.3792C36.3764 30.2042 36.6667 31.1972 36.6667 32.3583V36.6667H7.33337ZM10.0834 33.9167H33.9167V32.3583C33.9167 31.8694 33.7716 31.4035 33.4813 30.9604C33.191 30.5174 32.832 30.1889 32.4042 29.975C30.4487 29.0278 28.6612 28.3785 27.0417 28.0271C25.4223 27.6757 23.7417 27.5 22 27.5C20.2584 27.5 18.5625 27.6757 16.9125 28.0271C15.2625 28.3785 13.475 29.0278 11.55 29.975C11.1223 30.1889 10.7709 30.5174 10.4959 30.9604C10.2209 31.4035 10.0834 31.8694 10.0834 32.3583V33.9167ZM22 19.2042C23.1917 19.2042 24.1771 18.8146 24.9563 18.0354C25.7355 17.2562 26.125 16.2708 26.125 15.0792C26.125 13.8875 25.7355 12.9021 24.9563 12.1229C24.1771 11.3437 23.1917 10.9542 22 10.9542C20.8084 10.9542 19.823 11.3437 19.0438 12.1229C18.2646 12.9021 17.875 13.8875 17.875 15.0792C17.875 16.2708 18.2646 17.2562 19.0438 18.0354C19.823 18.8146 20.8084 19.2042 22 19.2042Z" />
</svg>
