<svg width="26" height="27" viewBox="0 0 26 27" fill="none" xmlns="http://www.w3.org/2000/svg">
<path d="M4.875 24.3333C4.44167 24.3333 4.0625 24.1708 3.7375 23.8458C3.4125 23.5208 3.25 23.1417 3.25 22.7083V5.91669C3.25 5.48335 3.4125 5.10419 3.7375 4.77919C4.0625 4.45419 4.44167 4.29169 4.875 4.29169H6.63542V2.66669H8.39583V4.29169H17.6042V2.66669H19.3646V4.29169H21.125C21.5583 4.29169 21.9375 4.45419 22.2625 4.77919C22.5875 5.10419 22.75 5.48335 22.75 5.91669V22.7083C22.75 23.1417 22.5875 23.5208 22.2625 23.8458C21.9375 24.1708 21.5583 24.3333 21.125 24.3333H4.875ZM4.875 22.7083H21.125V11.0625H4.875V22.7083ZM4.875 9.43752H21.125V5.91669H4.875V9.43752ZM13 15.6667C12.6931 15.6667 12.4358 15.5629 12.2281 15.3552C12.0205 15.1476 11.9167 14.8903 11.9167 14.5834C11.9167 14.2764 12.0205 14.0191 12.2281 13.8115C12.4358 13.6038 12.6931 13.5 13 13.5C13.3069 13.5 13.5642 13.6038 13.7719 13.8115C13.9795 14.0191 14.0833 14.2764 14.0833 14.5834C14.0833 14.8903 13.9795 15.1476 13.7719 15.3552C13.5642 15.5629 13.3069 15.6667 13 15.6667ZM8.66667 15.6667C8.35972 15.6667 8.10243 15.5629 7.89479 15.3552C7.68715 15.1476 7.58333 14.8903 7.58333 14.5834C7.58333 14.2764 7.68715 14.0191 7.89479 13.8115C8.10243 13.6038 8.35972 13.5 8.66667 13.5C8.97361 13.5 9.2309 13.6038 9.43854 13.8115C9.64618 14.0191 9.75 14.2764 9.75 14.5834C9.75 14.8903 9.64618 15.1476 9.43854 15.3552C9.2309 15.5629 8.97361 15.6667 8.66667 15.6667ZM17.3333 15.6667C17.0264 15.6667 16.7691 15.5629 16.5615 15.3552C16.3538 15.1476 16.25 14.8903 16.25 14.5834C16.25 14.2764 16.3538 14.0191 16.5615 13.8115C16.7691 13.6038 17.0264 13.5 17.3333 13.5C17.6403 13.5 17.8976 13.6038 18.1052 13.8115C18.3128 14.0191 18.4167 14.2764 18.4167 14.5834C18.4167 14.8903 18.3128 15.1476 18.1052 15.3552C17.8976 15.5629 17.6403 15.6667 17.3333 15.6667ZM13 20C12.6931 20 12.4358 19.8962 12.2281 19.6886C12.0205 19.4809 11.9167 19.2236 11.9167 18.9167C11.9167 18.6097 12.0205 18.3524 12.2281 18.1448C12.4358 17.9372 12.6931 17.8334 13 17.8334C13.3069 17.8334 13.5642 17.9372 13.7719 18.1448C13.9795 18.3524 14.0833 18.6097 14.0833 18.9167C14.0833 19.2236 13.9795 19.4809 13.7719 19.6886C13.5642 19.8962 13.3069 20 13 20ZM8.66667 20C8.35972 20 8.10243 19.8962 7.89479 19.6886C7.68715 19.4809 7.58333 19.2236 7.58333 18.9167C7.58333 18.6097 7.68715 18.3524 7.89479 18.1448C8.10243 17.9372 8.35972 17.8334 8.66667 17.8334C8.97361 17.8334 9.2309 17.9372 9.43854 18.1448C9.64618 18.3524 9.75 18.6097 9.75 18.9167C9.75 19.2236 9.64618 19.4809 9.43854 19.6886C9.2309 19.8962 8.97361 20 8.66667 20ZM17.3333 20C17.0264 20 16.7691 19.8962 16.5615 19.6886C16.3538 19.4809 16.25 19.2236 16.25 18.9167C16.25 18.6097 16.3538 18.3524 16.5615 18.1448C16.7691 17.9372 17.0264 17.8334 17.3333 17.8334C17.6403 17.8334 17.8976 17.9372 18.1052 18.1448C18.3128 18.3524 18.4167 18.6097 18.4167 18.9167C18.4167 19.2236 18.3128 19.4809 18.1052 19.6886C17.8976 19.8962 17.6403 20 17.3333 20Z" />
</svg>
