<svg width="45" height="45" viewBox="0 0 45 45" fill="none" xmlns="http://www.w3.org/2000/svg">
<path d="M9.75 24.75C9.125 24.75 8.59375 24.5312 8.15625 24.0938C7.71875 23.6563 7.5 23.125 7.5 22.5C7.5 21.875 7.71875 21.3437 8.15625 20.9062C8.59375 20.4687 9.125 20.25 9.75 20.25C10.375 20.25 10.9063 20.4687 11.3438 20.9062C11.7813 21.3437 12 21.875 12 22.5C12 23.125 11.7813 23.6563 11.3438 24.0938C10.9063 24.5312 10.375 24.75 9.75 24.75ZM22.5 24.75C21.875 24.75 21.3438 24.5312 20.9063 24.0938C20.4688 23.6563 20.25 23.125 20.25 22.5C20.25 21.875 20.4688 21.3437 20.9063 20.9062C21.3438 20.4687 21.875 20.25 22.5 20.25C23.125 20.25 23.6563 20.4687 24.0938 20.9062C24.5313 21.3437 24.75 21.875 24.75 22.5C24.75 23.125 24.5313 23.6563 24.0938 24.0938C23.6563 24.5312 23.125 24.75 22.5 24.75ZM35.25 24.75C34.625 24.75 34.0938 24.5312 33.6563 24.0938C33.2188 23.6563 33 23.125 33 22.5C33 21.875 33.2188 21.3437 33.6563 20.9062C34.0938 20.4687 34.625 20.25 35.25 20.25C35.875 20.25 36.4063 20.4687 36.8438 20.9062C37.2813 21.3437 37.5 21.875 37.5 22.5C37.5 23.125 37.2813 23.6563 36.8438 24.0938C36.4063 24.5312 35.875 24.75 35.25 24.75Z" />
</svg>
