<svg width="152" height="152" viewBox="0 0 152 152" xmlns="http://www.w3.org/2000/svg">
<g clip-path="url(#clip0_89_354)">
<path d="M80.1563 1.51445C67.5985 3.11757 65.2531 3.59258 61.6016 5.31444C55.0703 8.37225 52.9031 10.7176 43.1359 25.3832C25.2343 52.2801 12.3202 76.0004 5.37333 94.8519C4.51239 97.1379 3.32488 100.344 2.67176 101.977C-1.36575 112.368 -0.742313 120.086 4.60145 125.846C7.89677 129.378 12.3796 131.783 18.3171 133.149C20.0687 133.564 22.7406 134.188 24.1952 134.544C30.1328 135.939 35.8031 137.928 42.6312 141.016C55.7828 146.983 65.8469 149.922 78.5235 151.436C83.4516 152.03 96.247 151.941 101.086 151.288C111.447 149.863 120.442 147.339 129.616 143.272C134.752 140.986 141.461 137.335 142.56 136.266C144.846 133.98 142.975 129.824 139.739 129.913C138.789 129.972 137.572 130.477 134.663 132.11C124.064 138.077 112.664 141.877 100.344 143.569C95.7126 144.222 83.8672 144.311 79.2657 143.747C67.1235 142.263 58.5438 139.739 45.6297 133.921C37.3171 130.18 31.914 128.369 22.8593 126.321C17.3968 125.074 14.8733 124.153 12.439 122.521C7.33271 119.136 6.41239 113.525 9.61865 105.48C10.1827 104.025 11.3702 100.849 12.2608 98.4144C18.5249 81.1957 29.7171 60.1176 45.5109 35.7738C50.0828 28.7082 56.6734 19.0598 58.1281 17.2785C60.1469 14.8144 64.3328 12.1426 67.7172 11.1629C69.4391 10.6582 91.6454 7.71913 93.6641 7.71913C96.1876 7.71913 99.572 10.1832 100.314 12.5879C100.938 14.5473 102.719 25.8285 102.541 26.6301C101.977 28.9754 100.106 30.816 97.761 31.3207C97.1079 31.4394 94.1392 30.8754 87.6673 29.391C82.6501 28.2332 77.9 27.0754 77.1282 26.8082C76.0297 26.4519 75.525 26.4222 74.7235 26.6894C72.4672 27.4316 72.6157 26.9863 67.0641 48.3613C62.0469 67.7472 61.9578 68.1035 62.3735 69.291C63.5016 72.5566 68.1625 72.7051 69.4391 69.5285C69.6172 69.0832 71.6954 61.2457 74.0704 52.1316C76.4157 43.0176 78.4344 35.4769 78.5235 35.3879C78.6125 35.2988 81.4626 35.8629 84.8469 36.6644C95.861 39.2473 96.0688 39.2769 98.4735 38.9504C104.47 38.1191 109.131 33.6066 110.141 27.6394C110.467 25.7394 110.408 25.116 109.547 20.1285C108.152 11.8754 107.795 10.4207 106.786 8.31288C104.322 3.32538 98.6517 -0.0886841 92.9516 0.0300751C92.0313 0.0597534 86.2719 0.712875 80.1563 1.51445Z" />
<path d="M88.5578 70.686C75.8218 71.9032 64.1547 79.8594 54.6547 93.8125C50.4391 99.9875 49.9047 101.353 50.8844 103.283C51.7453 104.916 53.8828 105.717 55.575 105.005C56.7625 104.5 57.2672 103.906 59.939 99.75C67.3906 88.1422 76.5047 80.8985 86.3312 78.7907C89.1515 78.1969 94.6437 78.1375 97.6718 78.6422C103.936 79.7407 111.566 83.1844 116.791 87.2516C117.741 87.9938 118.928 88.9141 119.433 89.2703C121.036 90.4281 123.411 90.0719 124.836 88.4391C126.023 87.1031 130.15 84.2828 133.03 82.8282C137.572 80.5719 141.401 79.5329 146.953 79.1172C149.714 78.8797 150.545 78.5235 151.406 77.0985C152.148 75.8813 152.148 74.6344 151.406 73.4172C150.426 71.7844 149.655 71.4875 146.597 71.5172C139.175 71.6063 131.07 74.3672 124.212 79.1172L121.511 80.9875L118.572 79.0579C111.15 74.1891 103.402 71.3391 95.7125 70.686C93.7828 70.5079 91.9718 70.3891 91.7343 70.3891C91.4968 70.4188 90.0718 70.5672 88.5578 70.686Z" />
<path d="M125.904 112.842C125.518 112.991 124.272 113.97 123.173 115.009C116.968 120.888 109.19 123.886 100.195 123.886C95.831 123.886 92.4466 123.352 87.8154 121.986C85.1732 121.214 84.6091 121.125 83.6591 121.392C82.056 121.897 81.0466 123.233 81.0466 124.895C81.0466 127.567 82.2341 128.517 87.281 129.853C93.8716 131.605 101.353 132.08 107.32 131.1C115.751 129.705 124.806 124.895 129.734 119.255C131.664 117.028 131.1 114.03 128.547 112.991C127.181 112.456 126.914 112.427 125.904 112.842Z" />
</g>
<defs>
<clipPath id="clip0_89_354">
<rect width="152" height="152"/>
</clipPath>
</defs>
</svg>
