<svg width="159" height="156" viewBox="0 0 159 156" xmlns="http://www.w3.org/2000/svg">
<path d="M60.3714 0.92268C59.7327 1.73892 59.6262 2.37771 59.6262 5.32327V8.76567L55.8289 8.9786C47.773 9.43996 40.0364 12.5984 34.2518 17.8153L32.4774 19.4123L26.6217 19.6252C20.5886 19.8381 18.6723 20.1575 14.1297 21.861C8.91288 23.8129 2.91529 28.8523 0.679506 33.0754C-0.172222 34.7434 -0.172222 35.5241 0.750484 36.6952C1.3183 37.405 1.77966 37.618 2.84432 37.618C4.12191 37.618 4.33484 37.476 6.28672 34.8498C11.3971 28.0715 18.4593 25.055 28.9285 25.2324C31.6611 25.2679 34.1098 25.2679 34.3583 25.2324C34.6422 25.2324 35.9198 24.1677 37.1973 22.9611C41.1366 19.1993 44.65 17.1765 50.1152 15.5795C52.2445 14.9407 53.6641 14.7987 58.0647 14.7633C65.2689 14.7278 65.0914 14.8342 65.2334 9.6174L65.3754 5.67816H79.5353H93.6953V9.40447C93.6953 12.9178 93.7663 13.2372 94.547 14.018C95.3988 14.8697 95.5052 14.9052 99.6219 14.6923C108.281 14.2309 115.84 17.07 121.98 23.0676C123.222 24.2387 124.393 25.2324 124.641 25.2324C124.89 25.2679 127.339 25.2679 130.071 25.2324C140.54 25.055 147.603 28.0715 152.713 34.8498C154.594 37.3695 154.913 37.618 156.013 37.618C157.433 37.618 158.994 36.3049 158.994 35.1337C158.994 31.9043 152.145 25.0905 146.29 22.4643C141.853 20.4769 138.624 19.8026 132.378 19.6252L126.522 19.4123L124.748 17.8153C118.537 12.2436 109.878 8.87214 101.822 8.87214H99.3735V5.35876C99.3735 2.37771 99.267 1.73892 98.6282 0.92268L97.9185 -2.67029e-05H79.4998H61.0812L60.3714 0.92268Z" />
<path d="M66.4755 45.6029C66.0497 45.9223 65.4109 47.1289 64.9495 48.513C61.7556 58.3433 53.5932 65.6895 43.6563 67.6059C41.1721 68.1027 40.0365 70.4095 41.3496 72.2904C42.1658 73.426 43.4079 73.5325 46.6019 72.7162C57.6034 69.9126 66.4755 61.7148 70.1309 50.9617C71.1955 47.8387 71.1955 47.0225 70.0954 45.9578C69.1017 44.9286 67.6112 44.8222 66.4755 45.6029Z" />
<path d="M88.9043 45.9578C87.8042 47.0224 87.8042 47.8387 88.8688 50.9617C91.2466 57.9175 95.8246 63.9505 101.964 68.1027C106.01 70.8353 114.137 73.7809 116.231 73.2486C118.182 72.7517 118.857 69.9481 117.402 68.5995C116.94 68.1737 115.734 67.6768 114.669 67.4639C105.194 65.4765 97.1377 58.0594 94.0502 48.513C93.5888 47.1289 92.95 45.9223 92.5242 45.6029C91.3885 44.8221 89.898 44.9286 88.9043 45.9578Z" />
<path d="M77.5479 68.6706L76.6606 69.5223V80.2754C76.6961 88.1539 76.8026 91.1704 77.122 91.5963C78.3286 93.1578 80.2805 93.2642 81.6291 91.8447C82.3033 91.0994 82.3388 90.6381 82.3388 80.3109V69.5223L81.4516 68.6706C80.9193 68.1028 80.174 67.7834 79.4997 67.7834C78.8255 67.7834 78.0802 68.1028 77.5479 68.6706Z" />
<path d="M19.6661 87.6924C19.2758 87.9054 18.6725 88.5087 18.3531 89.0765C16.6141 91.9866 10.4391 94.9676 3.73173 96.1387C0.324819 96.7421 -1.05924 99.0488 0.892637 100.965C1.49594 101.604 2.13474 101.852 3.12842 101.852C5.57714 101.852 11.4328 100.149 15.1236 98.339L18.7434 96.6001L18.9918 98.2326C19.9146 104.727 23.073 114.557 26.6929 122.081L29.1416 127.227L31.2709 140.535C33.0808 151.82 33.5422 153.95 34.1455 154.624L34.8908 155.44H79.5H124.109L124.819 154.66C125.458 153.985 125.919 151.714 127.729 140.429L129.894 127.049L131.704 123.43C135.253 116.367 138.305 107.353 139.689 100.042L140.328 96.6356L143.876 98.339C147.567 100.149 153.423 101.852 155.872 101.852C156.865 101.852 157.504 101.604 158.107 100.965C160.059 99.0488 158.675 96.7421 155.268 96.1387C148.951 95.0386 144.302 92.9093 141.073 89.5733C139.831 88.3312 138.589 87.3021 138.269 87.3021C136.992 87.3021 135.998 88.0828 134.756 90.0702C132.414 93.8675 129.291 95.7484 124.677 96.1742C120.347 96.5646 120.241 96.7066 120.17 102.243C120.135 106.395 120.064 106.785 118.999 109.021C118.254 110.583 116.976 112.357 115.379 114.061C113.285 116.296 112.859 116.935 112.859 117.929C112.859 119.49 114.066 120.661 115.698 120.661C116.763 120.661 117.295 120.271 119.638 117.893C123.683 113.777 125.99 108.666 125.99 103.911V101.959L127.871 101.533C128.9 101.32 130.746 100.646 131.988 100.078C133.833 99.1908 134.153 99.1198 134.011 99.6521C133.904 99.9715 133.585 101.285 133.265 102.562C131.633 109.092 128.758 116.9 125.848 122.72C124.322 125.772 124.287 125.985 122.406 137.767L120.489 149.762H101.432H82.3391V141.103C82.3391 132.515 82.3391 132.408 81.5229 131.45C80.9195 130.74 80.3517 130.492 79.5 130.492C78.6483 130.492 78.0805 130.74 77.4771 131.45C76.6609 132.408 76.6609 132.515 76.6609 141.103V149.762H57.568H38.4751L36.5942 137.767L34.6778 125.807L33.0099 122.436C30.0998 116.58 27.4027 109.27 25.7347 102.562C25.4153 101.285 25.0959 99.9715 24.9894 99.6521C24.8475 99.1198 25.1669 99.1908 27.0123 100.078C28.2544 100.646 30.0998 101.32 31.129 101.533L33.0099 101.959V103.911C33.0099 108.666 35.3166 113.777 39.3623 117.893C41.7756 120.378 42.2369 120.661 43.408 120.661C45.1115 120.661 46.1407 119.668 46.1407 117.964C46.1407 116.9 45.7858 116.332 43.621 114.061C42.024 112.357 40.7464 110.583 40.0011 109.021C38.9365 106.785 38.8655 106.395 38.83 102.243C38.759 96.7421 38.6171 96.5646 34.5004 96.1742C29.603 95.6774 26.7994 94.0094 24.3151 90.1412C22.4697 87.2666 21.547 86.8052 19.6661 87.6924Z" />
<path d="M77.5479 99.9006L76.6606 100.752V111.612V122.471L77.5479 123.323C78.6835 124.494 80.316 124.494 81.4516 123.323L82.3388 122.471V111.612V100.752L81.4516 99.9006C80.9193 99.3328 80.174 99.0134 79.4997 99.0134C78.8255 99.0134 78.0802 99.3328 77.5479 99.9006Z" />
</svg>
