<svg width="156" height="156" viewBox="0 0 156 156" xmlns="http://www.w3.org/2000/svg">
<g clip-path="url(#clip0_93_49)">
<path d="M64.5328 0.700745C62.3695 1.61481 60.0539 3.29059 58.9265 4.78355C57.921 6.0937 57.8906 6.61168 58.439 13.7109C58.7437 17.8242 59.3835 20.2617 60.389 21.0843C61.3031 21.8765 62.9484 21.7851 63.832 20.871C64.7156 20.0179 64.7765 19.0734 64.1367 16.9406C63.8929 16.1179 63.6796 14.5945 63.6796 13.589C63.6796 11.8523 63.7406 11.7 64.5937 11.2124C65.9648 10.4507 66.2085 8.34839 65.0507 7.22105C64.5632 6.70308 64.7156 6.48981 66.3304 5.66714C67.671 4.99683 69.6515 5.0273 70.657 5.75854C71.114 6.0937 71.9367 6.39839 72.5156 6.45934C73.3687 6.52026 73.6734 6.76402 74.1 7.61714C75.3492 10.0546 74.1914 15.2648 72.6984 14.0461C72.3937 13.7718 71.7234 13.9546 69.9562 14.6859C68.707 15.2343 67.6406 15.8437 67.6406 16.057C67.6406 16.4836 69.3164 18.2507 70.3523 18.9211L71.0836 19.3781L68.9812 20.6273C66.3304 22.2117 66.0867 22.4859 64.6242 25.5937C62.796 29.5242 61.5468 35.2218 61.5468 39.6093C61.5468 40.5843 61.4249 41.4679 61.2726 41.5593C61.1203 41.6507 58.1343 41.3156 54.6304 40.7976C51.157 40.3101 47.5921 39.8835 46.7695 39.8531C43.6617 39.8226 41.4984 41.9554 41.0109 45.5203C40.6452 48.4453 42.0773 51.0046 44.5757 51.9187C45.2765 52.1624 49.3898 53.1679 53.6859 54.1429L61.5468 55.8796L61.6687 56.8242C61.7296 57.3117 62.0039 59.6577 62.2781 62.0038C62.5218 64.3499 62.7656 66.3913 62.796 66.5742C62.8265 66.7265 60.1148 71.8757 56.8242 77.9999C53.5031 84.1241 50.4867 89.7913 50.1515 90.6444C49.5421 92.1069 49.5117 92.7773 49.4202 107.158L49.3288 122.149L44.0882 125.409L38.8476 128.639L35.1304 128.091L31.3827 127.542V101.217V74.8616L32.9062 76.8726C34.5515 78.9749 35.7398 79.7062 36.9281 79.371C38.5429 78.8531 39.396 77.1468 38.6648 75.8062C37.9945 74.5265 22.5773 55.2093 22.0593 55.0265C19.6523 54.1124 17.4585 56.3671 18.6468 58.5913C18.8296 58.957 20.5359 61.2117 22.4554 63.5882L25.8984 67.9452V97.2562V126.598H23.5218C21.4804 126.598 20.9015 126.719 19.1343 127.603C16.8187 128.73 15.478 130.101 14.3507 132.539L13.5585 134.215L13.4671 144.3C13.3757 154.172 13.3757 154.385 14.0155 155.177C14.8991 156.274 16.9405 156.335 17.9155 155.299C18.5554 154.598 18.5858 154.355 18.5858 147.225C18.5858 141.192 18.6468 139.851 19.0124 139.851C19.2257 139.851 34.6734 142.106 53.3203 144.879C71.9671 147.651 87.8109 149.906 88.5422 149.906C89.5781 149.906 89.9742 149.754 90.4617 149.114C91.2843 148.048 91.2843 146.798 90.4007 145.793C89.7 144.97 89.3953 144.909 54.996 139.821C35.8921 137.018 19.9874 134.641 19.6523 134.58C19.1343 134.519 19.1952 134.337 20.3226 133.24C21.0843 132.478 21.9984 131.93 22.6382 131.808C23.3694 131.686 38.0249 133.819 68.1281 138.48C92.5945 142.258 117.335 146.098 123.124 147.012C133.453 148.596 134.885 148.962 135.952 150.119C136.683 150.912 137.414 152.77 137.414 153.806C137.414 155.908 140.644 156.853 141.984 155.147C142.563 154.446 142.624 154.05 142.502 152.587C142.198 149.023 140.095 145.945 137.018 144.452C135.251 143.599 132.57 143.142 99.5414 138.023C79.95 135.007 63.6796 132.539 63.375 132.539C63.0703 132.539 62.7351 132.417 62.6437 132.295C62.5218 132.082 63.4054 121.387 65.0812 102.832L65.5687 97.3476L70.4132 90.8882C74.557 85.3734 75.2578 84.2765 75.2578 83.3624C75.2578 81.4734 73.2164 80.1937 71.632 81.0773C71.2054 81.321 68.5242 84.5812 65.6906 88.3288L60.5718 95.1233L59.3531 108.591C58.6828 115.964 58.0734 122.088 58.0429 122.119C57.982 122.18 57.1593 122.058 56.2453 121.844L54.539 121.479V108.469C54.539 100.912 54.6609 94.7577 54.8437 93.8132C55.0874 92.6249 56.9156 88.9382 61.6687 80.1327L68.1586 68.0976L69.3468 68.0062C71.8148 67.8538 76.7507 66.9702 80.1328 66.1171C82.0523 65.6296 83.6976 65.2945 83.7586 65.3859C84.0937 65.6906 81.9304 69.3468 80.7421 70.5351C78.3961 72.8507 78.0914 74.1609 79.4929 75.5929C80.9554 77.0249 82.0218 76.8421 84.0937 74.7093C85.0382 73.7648 86.0742 72.5765 86.4093 72.1195L87.0187 71.2359L90.614 82.4788C92.5945 88.6335 94.4226 93.9046 94.6969 94.1788C95.0015 94.453 99.8765 97.4694 105.574 100.851C111.272 104.264 116.055 107.128 116.177 107.25C116.452 107.494 115.507 109.687 115.111 109.687C114.959 109.687 109.535 107.28 103.045 104.386L91.2539 99.0538L86.1047 92.6249C83.0578 88.7859 80.6507 86.0741 80.1937 85.8913C79.2796 85.5257 77.8171 85.9523 77.2078 86.7444C76.9945 87.0491 76.8117 87.7804 76.7812 88.3593C76.7812 89.2734 77.5125 90.3093 82.357 96.3726L87.9023 103.35L101.004 109.23L114.075 115.141L115.629 121.418C117.061 127.268 117.244 127.786 118.158 128.608C119.864 130.132 122.637 129.644 123.703 127.633C124.343 126.476 128.883 111.363 128.883 110.449C128.883 109.931 128.7 109.291 128.517 109.017C127.908 108.255 122.728 104.995 110.236 97.4999L98.7797 90.6444L94.2703 76.6288C91.8023 68.9202 89.7914 62.2781 89.8218 61.8515C89.8523 61.4249 89.5476 59.5054 89.1515 57.5859C88.7554 55.6663 88.5422 53.9296 88.664 53.7773C88.7859 53.5945 90.8578 51.0656 93.2648 48.1406C95.6719 45.2156 97.957 42.1992 98.3226 41.4679C99.6023 38.9695 99.1453 34.8257 97.4086 32.9671C97.0429 32.571 93.0515 30.0421 88.5117 27.3609C81.7781 23.339 79.95 22.1203 78.457 20.5664L76.6289 18.6773L77.7562 17.2453C79.3711 15.2343 79.9195 13.071 79.7672 9.59761C79.5843 5.14917 77.9695 2.52887 74.8007 1.55386C74.1304 1.34059 73.0945 0.944489 72.5156 0.670273C71.8757 0.365585 70.4437 0.121841 68.8593 0.0913696C66.696 -4.57764e-05 65.9953 0.0913696 64.5328 0.700745ZM75.014 24.5882C76.2328 25.9288 77.6648 28.214 78.6398 30.3164C80.2547 33.9117 81.0468 37.3546 82.1132 45.8554C82.6922 50.3648 83.3929 55.3007 83.6367 56.7937C83.9109 58.2562 84.0937 59.5054 84.0328 59.5663C83.8195 59.7492 77.8781 61.3031 75.3797 61.8515C73.8257 62.1867 71.3882 62.5523 69.9562 62.6437L67.3359 62.857V61.9429C67.3359 61.4249 67.2445 60.1757 67.1531 59.1398L66.9398 57.2812H68.4632C71.175 57.2812 73.5515 56.0624 74.9836 53.9601C76.0804 52.3148 78.4265 43.0218 78.0304 41.9249C77.3601 40.2492 75.2578 39.7007 73.9171 40.889C73.3078 41.4374 72.9117 42.4734 72.0586 45.9773C71.4492 48.4148 70.8398 50.639 70.657 50.9132C69.8953 52.3453 69.682 52.3148 57.6773 49.6335L46.3124 47.0742V46.221C46.3124 45.764 46.4953 45.307 46.739 45.2156C46.9523 45.1242 51.614 45.7031 57.0984 46.4953C62.5523 47.257 67.3664 47.8054 67.7929 47.714C68.7984 47.4398 69.5906 45.9164 69.3164 44.6062C69.1335 43.5398 68.189 42.6562 67.275 42.6562C66.8179 42.6562 66.7265 42.382 66.7265 40.7062C66.7265 36.4406 67.7015 31.596 69.2554 28.2445C70.0781 26.3859 70.4132 25.9898 72.0281 24.9539C73.064 24.314 73.9781 23.7656 74.0695 23.7656C74.1609 23.7656 74.5875 24.1312 75.014 24.5882ZM88.8773 33.7289C93.6914 36.5929 93.8437 36.7148 93.8437 37.964C93.8437 38.7867 93.2648 39.6703 90.7359 42.7781C89.0297 44.8804 87.5976 46.5562 87.5367 46.5257C87.5062 46.4648 87.2625 44.6671 86.9883 42.5039C86.5007 38.6343 85.5257 33.5156 84.9773 32.0835C84.825 31.6874 84.764 31.3828 84.8554 31.3828C84.9164 31.3828 86.7445 32.4187 88.8773 33.7289ZM122.637 111.302C123.216 111.729 123.185 111.82 122.027 115.751C121.387 117.914 120.778 119.681 120.717 119.59C120.656 119.529 120.26 118.188 119.864 116.604L119.133 113.74L120.077 112.003C121.052 110.205 121.113 110.175 122.637 111.302ZM55.3007 126.994L57.4335 127.573V129.279C57.4335 130.223 57.3421 131.046 57.2812 131.107C57.1898 131.198 54.9046 130.894 52.1929 130.437L47.2874 129.644L49.7554 128.06C51.1265 127.207 52.4671 126.476 52.7109 126.476C52.9546 126.476 54.1429 126.719 55.3007 126.994Z" />
</g>
<defs>
<clipPath id="clip0_93_49">
<rect width="156" height="156" />
</clipPath>
</defs>
</svg>
