<svg width="156" height="156" viewBox="0 0 156 156" xmlns="http://www.w3.org/2000/svg">
<g clip-path="url(#clip0_90_394)">
<path d="M4.81406 7.0081C3.35156 7.43466 1.95 8.50107 1.03594 9.81122L0.152344 11.0604L0.0609375 29.4331L0 47.7753L0.792188 48.4151C1.82813 49.2377 2.74219 49.2377 3.77813 48.4151L4.57031 47.8057V36.5323V25.2893H6.85547H9.14063V83.7893C9.14063 125.988 9.04922 142.472 8.80547 142.99C8.62266 143.417 8.13516 143.935 7.70859 144.148C7.06875 144.483 6.825 144.483 6.15469 144.087C5.69766 143.843 5.17969 143.295 4.96641 142.899C4.66172 142.289 4.57031 132.905 4.57031 99.0846C4.57031 56.4588 4.57031 56.0627 3.96094 55.4534C3.13828 54.6307 1.43203 54.6307 0.609375 55.4534C0 56.0627 0 56.4588 0 100.121V144.178L0.822656 145.671C3.44297 150.485 10.5727 150.394 13.1016 145.488L13.8633 143.995L13.9547 130.498L14.0461 117H27.5742H41.1328V130.315C41.1328 143.081 41.1633 143.721 41.7727 145.031C42.8695 147.469 44.6977 148.84 47.3789 149.206C50.182 149.571 53.3813 147.804 54.5695 145.214C55.118 144.026 55.1484 141.619 55.1484 84.6119V25.2893H59.5664H63.9844V41.2854V57.312L62.9789 58.1956C61.6078 59.3838 60.1758 62.187 59.7188 64.5026C59.018 67.976 60.2672 72.0588 62.7656 74.5268L63.9844 75.7151V89.426V103.167L62.7961 104.325C58.5305 108.499 58.4391 115.66 62.6133 120.291L63.9234 121.753L64.0453 127.207C64.1367 132.113 64.2281 132.813 64.807 133.941C66.2086 136.592 68.5547 137.871 71.6625 137.658C74.1305 137.475 75.7149 136.561 76.9945 134.611C77.8477 133.362 77.8477 133.301 77.9391 127.603L78.0305 121.845L79.2492 120.748C79.8891 120.169 80.8641 118.828 81.382 117.762C83.6367 113.161 82.875 107.981 79.3406 104.203L78 102.771V89.3955V76.0502L79.3406 74.6487C83.7586 70.1698 83.7586 62.7659 79.3406 58.3784L78 57.0377V41.1635V25.2893H84.8555H91.7109V50.5174V75.7151L90.218 76.2635C87.9938 77.0557 85.9219 78.6096 84.6117 80.4682C83.0578 82.6924 82.4789 84.7643 82.6313 87.8721C82.8141 92.29 85.1906 95.8244 89.2734 97.7744C90.7359 98.4752 91.3453 98.5666 93.9961 98.5666C96.7078 98.5666 97.2563 98.4752 98.9625 97.683C101.4 96.5557 103.868 93.9658 104.843 91.4979C105.788 89.0299 105.818 85.2518 104.843 82.8143C103.929 80.4377 101.613 77.9697 99.2672 76.8119C98.2313 76.294 97.2258 75.8674 96.982 75.8674C96.6469 75.8674 96.5859 71.5104 96.5859 50.5784V25.2893H110.145H123.703V50.5784C123.703 71.5104 123.642 75.8674 123.307 75.8674C123.063 75.8674 122.058 76.294 121.052 76.7815C118.798 77.9088 116.634 80.1635 115.538 82.5096C114.837 84.0026 114.715 84.6424 114.715 87.1408C114.715 89.7611 114.806 90.2182 115.659 92.0158C116.787 94.4229 118.92 96.5861 121.235 97.7439C122.759 98.4752 123.277 98.5666 126.141 98.5666C129.066 98.5666 129.492 98.4752 131.168 97.683C133.484 96.5252 135.525 94.4838 136.652 92.1986C137.871 89.7307 138.084 85.983 137.17 83.3932C135.952 79.9807 133.423 77.4518 130.041 76.233L128.578 75.7151V50.5174V25.2893H135.281H141.984L142.045 84.6424L142.137 143.995L142.898 145.488C145.305 150.211 151.948 150.516 155.025 146.067L155.848 144.879L155.939 135.312C156.03 124.435 156.061 124.617 153.715 124.617C151.43 124.617 151.43 124.587 151.43 133.941C151.43 142.746 151.338 143.264 149.845 144.087C149.175 144.483 148.931 144.483 148.291 144.148C147.865 143.935 147.377 143.417 147.195 142.99C146.951 142.472 146.859 125.988 146.859 83.7893V25.2893H149.145H151.43V71.3885C151.43 115.69 151.46 117.549 151.978 118.006C152.77 118.706 154.842 118.676 155.513 117.975C155.97 117.457 156 113.466 155.939 64.2284L155.848 11.0604L154.964 9.78075C154.477 9.07997 153.441 8.13544 152.679 7.67841L151.277 6.85576L141.771 6.76434L132.234 6.67294L131.473 7.43466C130.406 8.50107 130.437 10.0854 131.503 10.9386C132.295 11.5479 132.691 11.5784 140.796 11.5784C146.463 11.5784 149.51 11.7003 150.028 11.9136C151.095 12.4011 151.43 13.6503 151.43 17.2456V20.4143H78H4.57031V17.2456C4.57031 13.6503 4.90547 12.4011 5.97188 11.9136C6.52031 11.6698 22.1203 11.5784 65.0813 11.5784H123.429L124.221 10.7862C124.861 10.1464 124.952 9.81122 124.8 8.89716C124.709 8.28778 124.343 7.52606 123.977 7.22137C123.368 6.73389 120.108 6.70341 64.4719 6.73389C32.1141 6.73389 5.27109 6.85576 4.81406 7.0081ZM41.1328 29.7073V34.1253H27.5742H14.0156V29.7073V25.2893H27.5742H41.1328V29.7073ZM50.2734 84.094V142.929L49.5117 143.66C48.5672 144.635 47.7141 144.635 46.7695 143.66L46.0078 142.929V84.094V25.2893H48.1406H50.2734V84.094ZM73.125 29.3417V33.394L70.9922 35.4964L68.8594 37.5987V31.444V25.2893H70.9922H73.125V29.3417ZM41.1328 41.2854V43.5706H27.5742H14.0156V41.2854V39.0003H27.5742H41.1328V41.2854ZM73.125 47.7448V54.9963H70.9922H68.8594V49.8167V44.6674L70.9008 42.5956C72.0281 41.4378 73.0031 40.5237 73.0336 40.5237C73.0945 40.5237 73.125 43.7839 73.125 47.7448ZM41.1328 52.8635V57.2815H27.5742H14.0156V52.8635V48.4456H27.5742H41.1328V52.8635ZM73.4906 60.2674C73.6125 60.3893 71.7539 62.4612 69.3469 64.8682L64.9594 69.2557L64.5938 67.976C63.4664 63.7713 67.3359 59.3838 71.7539 59.9018C72.607 59.9932 73.3688 60.1456 73.4906 60.2674ZM41.1328 64.2893V66.4221H27.5742H14.0156V64.2893V62.1565H27.5742H41.1328V64.2893ZM77.7258 66.6049C77.6953 70.2612 74.8313 73.1252 71.175 73.1252C68.0977 73.1252 68.0977 73.1252 72.8508 68.3721C77.6344 63.558 77.7867 63.5276 77.7258 66.6049ZM41.1328 75.7151V80.133H27.5742H14.0156V75.7151V71.2971H27.5742H41.1328V75.7151ZM73.125 80.9862V83.9721L70.9922 86.0744L68.8594 88.1768V83.0885V78.0002H70.9922H73.125V80.9862ZM91.7109 82.3877C91.7109 83.4846 91.8633 83.8502 92.5031 84.3682C94.2703 85.7697 96.2508 84.8557 96.4945 82.4791C96.5859 81.6869 96.7383 81.0471 96.8602 81.0471C96.982 81.0471 97.5609 81.4737 98.2008 81.9916C101.248 84.4901 101.583 88.5729 98.993 91.5283C95.032 96.0377 87.8719 93.6002 87.5063 87.5979C87.3844 85.9221 87.5063 85.4651 88.2375 84.094C88.9992 82.7229 90.7664 81.0471 91.4672 81.0471C91.6195 81.0471 91.7109 81.6565 91.7109 82.3877ZM123.703 82.2658C123.703 83.1799 123.916 83.6979 124.465 84.2463C126.08 85.8916 128.578 84.7033 128.578 82.2658C128.578 80.8643 128.761 80.7729 129.98 81.7174C132.752 83.8502 133.545 86.9885 132.113 90.0658C129.37 95.9768 120.595 94.5752 119.559 88.0854C119.224 86.0744 119.955 84.1549 121.631 82.5096C122.423 81.6869 123.216 81.0471 123.398 81.0471C123.551 81.0471 123.703 81.5955 123.703 82.2658ZM41.1328 87.1408V89.2736H27.5742H14.0156V87.1408V85.008H27.5742H41.1328V87.1408ZM73.125 95.9768V100.852H70.9922H68.8594V98.0486V95.2455L70.9008 93.1736C72.0281 92.0158 73.0031 91.1018 73.0336 91.1018C73.0945 91.1018 73.125 93.2955 73.125 95.9768ZM41.1328 98.5666V102.985H27.5742H14.0156V98.5666V94.1486H27.5742H41.1328V98.5666ZM73.3383 106.123C73.4602 106.245 71.632 108.256 69.3164 110.602C66.4523 113.496 64.9594 114.745 64.7461 114.532C64.5938 114.38 64.4719 113.466 64.4719 112.491C64.4719 109.718 66.0867 107.342 68.707 106.123C69.6211 105.696 72.9117 105.727 73.3383 106.123ZM41.1328 110.145V112.43H27.5742H14.0156V110.145V107.86H27.5742H41.1328V110.145ZM77.7258 112.43C77.7258 113.192 77.5734 114.228 77.3906 114.715C76.1719 117.914 72.2109 119.925 69.2859 118.828L68.4328 118.493L72.8203 114.106C76.8727 110.023 77.2383 109.749 77.482 110.388C77.6344 110.754 77.7258 111.668 77.7258 112.43ZM73.125 127.847C73.125 131.229 73.0641 131.686 72.5156 132.235C71.7539 132.996 70.657 133.027 69.743 132.265C69.0422 131.717 69.0117 131.442 68.9203 127.756L68.7984 123.856L70.9617 123.947L73.125 124.069V127.847Z" />
</g>
<defs>
<clipPath id="clip0_90_394">
<rect width="156" height="156" />
</clipPath>
</defs>
</svg>
