<svg width="201" height="201" viewBox="0 0 201 201" xmlns="http://www.w3.org/2000/svg">
<path d="M34.9394 20.0215C34.0364 20.9244 33.8794 23.0443 34.7038 24.1436C35.1749 24.8109 35.9993 24.9287 41.4562 25.1643C44.9109 25.3213 48.9544 25.6353 50.4462 25.9102C67.5626 28.6975 85.2286 36.1564 100.5 47.1094C108.312 52.7232 112.238 56.0602 121.11 64.8932L129.708 73.4514L134.693 75.9639C140.033 78.6727 141.799 79.9289 142.702 81.6562C143.369 82.9125 149.965 105.015 149.965 105.957C149.965 106.31 147.963 110.746 145.529 115.811C142.309 122.445 136.735 132.534 125.703 151.574C117.224 166.178 110.314 178.505 110.314 178.898C110.314 180.311 111.806 181.764 113.259 181.764C114.319 181.764 114.79 181.489 115.536 180.507C118.166 176.935 146.196 127.745 150.475 119.108C156.874 106.271 156.756 107.645 152.124 92.0596C150.24 85.7783 148.277 79.8504 147.766 78.8689C146.392 76.1602 143.566 73.8832 138.109 71.1744C133.319 68.7797 133.123 68.6227 128.373 63.7154C114.279 49.1508 101.324 39.2186 86.7204 31.7988C70.8603 23.7117 54.0579 19.2363 39.7681 19.2363C36.2349 19.2363 35.6068 19.3541 34.9394 20.0215Z" />
<path d="M45.4212 58.8082C44.5968 59.7111 44.5575 62.1451 45.3034 62.7733C45.6175 63.0088 47.4233 63.9903 49.3077 64.9324C54.2542 67.3272 63.0872 72.1559 65.0501 73.4514C65.953 74.0795 67.1308 74.5899 67.7196 74.5899C68.8188 74.5899 70.664 73.0196 70.664 72.0774C70.664 69.7219 68.6618 68.3086 56.6882 62.1451C48.3655 57.866 46.7167 57.3949 45.4212 58.8082Z" />
<path d="M74.4721 77.2593C74.0795 77.6519 73.8047 78.6333 73.8047 79.4185C73.8047 80.714 74.0402 81.0673 76.0816 82.6376C79.4971 85.3857 86.8775 90.2537 91.4314 92.8054C101.442 98.4193 112.238 102.031 121.15 102.698C126.489 103.091 127.98 102.463 127.98 99.8718C127.98 97.6341 126.921 96.9668 123.427 96.9668C112.277 96.9668 94.9254 89.6255 80.8711 78.9082C77.4949 76.3171 75.7283 75.8853 74.4721 77.2593Z" />
<path d="M135.322 83.148C134.772 83.7369 134.654 84.7183 134.654 87.859C134.654 91.3529 134.772 91.981 135.439 92.6484C136.46 93.6691 137.795 93.6298 139.13 92.6091C140.111 91.824 140.15 91.6277 140.15 87.9767C140.15 83.3836 139.679 82.4414 137.442 82.4414C136.499 82.4414 135.714 82.7162 135.322 83.148Z" />
<path d="M34.9393 97.7521C33.9578 98.7335 33.9186 100.971 34.8608 101.913C35.9207 102.973 42.8301 106.114 48.5225 108.077C60.3783 112.199 71.8416 114.201 88.0943 115.065C92.6482 115.3 96.417 115.536 96.4562 115.575C96.5348 115.614 95.2 116.635 93.5119 117.774C81.8916 125.9 71.8023 135.989 68.2299 143.095C66.6596 146.196 66.3455 147.766 65.9529 154.872C65.5211 162.724 64.8145 167.552 63.1656 174.462L61.9486 179.487L62.6945 180.547C63.7938 181.96 66.1492 181.999 67.1699 180.586C68.9365 178.27 71.2527 165.275 71.7631 154.794C72.1164 147.963 72.6268 146.314 75.4141 142.231C79.6539 136.068 91.1564 126.214 103.562 118.127L108.94 114.633H111.767C114.79 114.633 115.614 114.24 116.046 112.395C116.242 111.728 116.046 111.1 115.536 110.393L114.75 109.333H99.6754C90.175 109.333 82.9908 109.137 80.282 108.823C63.0086 106.821 51.192 103.759 40.7102 98.498C37.2947 96.7707 36.0778 96.6136 34.9393 97.7521Z" />
<path d="M115.575 121.621C115.3 121.778 114.122 123.544 112.905 125.546C105.368 138.03 96.5742 149.337 88.5656 156.874C85.582 159.662 84.7969 160.643 84.7969 161.507C84.7969 162.841 86.4064 164.49 87.702 164.49C90.0182 164.49 99.1652 155.186 106.86 145.018C112.827 137.088 120.129 125.546 120.129 123.976C120.129 122.367 119.069 121.307 117.459 121.307C116.674 121.307 115.811 121.464 115.575 121.621Z" />
</svg>
