<svg width="159" height="159" viewBox="0 0 159 159" xmlns="http://www.w3.org/2000/svg">
<path d="M41.7686 0.217422C35.4023 1.05589 30.1541 2.39124 19.4092 5.90042C10.3723 8.88167 8.19844 9.44066 4.9377 9.78226C2.73281 9.99963 1.49062 10.6207 0.590039 11.9871C0.0310547 12.8567 0 14.8752 0 84.4688C0 154.062 0.0310547 156.081 0.590039 156.95C0.900586 157.416 1.58379 158.099 2.04961 158.41C2.91914 158.969 3.975 159 28.0424 159C51.3955 159 53.2277 158.969 54.0973 158.441C55.7121 157.478 56.1779 156.329 56.5195 152.292C56.8611 148.224 57.6064 145.119 59.0039 142.044C60.2771 139.249 61.5814 137.138 66.6434 129.809C71.3016 123.07 74.1896 118.287 76.084 114.157C79.9348 105.803 82.5744 95.6174 83.5371 85.4004C83.7545 83.2576 84.0029 80.8043 84.0961 79.9037L84.3135 78.2889L89.127 80.5559C97.7291 84.624 106.766 88.009 113.629 89.7481C124.063 92.3877 136.454 93.7852 149.621 93.7852C156.702 93.7852 157.106 93.692 158.41 91.7356C158.969 90.866 159 89.9033 159 70.4631V50.0912L158.13 48.8801C157.199 47.5758 149.746 40.4332 146.112 37.3588C132.697 25.9307 116.517 20.1235 96.0211 19.3471L90.9592 19.1608L88.4127 16.8627C78.5062 7.91898 68.0098 2.45335 57.2338 0.621124C54.501 0.155304 52.3893 3.05176e-05 48.1969 0.0310822C45.1535 0.062149 42.2965 0.155304 41.7686 0.217422ZM58.7555 10.8381C67.016 12.9809 75.2455 17.8254 82.9781 25.1233C84.624 26.6449 86.2389 28.0424 86.5805 28.2287C86.9531 28.4461 90.1518 28.6946 94.0025 28.8809C107.946 29.4709 116.952 31.4274 125.927 35.8371C132.914 39.2532 138.69 43.5076 145.74 50.3086L149.684 54.0973V69.1899V84.2514L143.876 84.0651C122.138 83.3197 108.443 79.5621 85.0898 67.8545C81.7049 66.1465 80.8043 65.836 79.4689 65.836C77.5746 65.836 76.3014 66.5192 75.4008 67.9787C74.8107 68.9104 74.7176 69.7178 74.5002 75.8977C73.817 94.5305 70.1525 107.17 61.7057 119.716C60.1219 122.107 57.2959 126.299 55.4637 129.001C50.7744 135.957 48.4764 140.988 47.5137 146.33C47.3273 147.417 47.11 148.597 47.0168 148.969L46.8926 149.684H28.1045H9.31641V140.367V131.051H17.3285C26.117 131.051 26.3344 130.989 27.6697 129.001C28.4771 127.79 28.4771 124.995 27.6697 123.784C26.3344 121.796 26.117 121.734 17.3285 121.734H9.31641V112.449V103.133L22.2973 103.039C35.1229 102.915 35.2781 102.915 38.2283 102.108C51.4266 98.5055 61.0225 88.9096 64.5316 75.8045C65.2148 73.1959 65.3391 72.0469 65.4633 66.3018C65.6186 59.035 65.4633 58.3518 63.5068 57.1406C62.1715 56.3022 59.5008 56.3022 58.2586 57.1096C56.6127 58.1965 56.209 59.1903 56.209 62.2647C56.1779 73.4444 54.0662 79.469 47.9795 85.5557C44.4393 89.0959 41.8307 90.7418 37.4209 92.2014C33.6322 93.4746 29.8125 93.7852 18.5707 93.7852H9.31641V56.3953V19.0055L11.5523 18.4776C12.7945 18.167 17.3906 16.7385 21.7383 15.31C33.9428 11.2729 39.2221 10.0307 45.3398 9.65804C50.1223 9.37854 54.6252 9.78226 58.7555 10.8381Z" />
</svg>
