<svg width="51" height="50" viewBox="0 0 51 50" fill="none" xmlns="http://www.w3.org/2000/svg">
<path d="M34.25 22.2916L35.5 17.2916C35.7083 16.6666 36.5417 13.75 34.875 11.25C33.625 9.37498 31.125 8.33331 27.5833 8.33331H23.4167C19.875 8.33331 17.375 9.37498 16.125 11.25C14.4583 13.75 15.2917 16.4583 15.5 17.2916L16.75 22.2916C14.4583 24.5833 13 27.7083 13 31.25C13 35.625 15.2917 39.375 18.625 41.6666H32.375C35.7083 39.375 38 35.625 38 31.25C38 27.7083 36.5417 24.5833 34.25 22.2916ZM20.5 19.7916L19.4583 16.25V16.0416C19.4583 16.0416 19.0417 14.5833 19.6667 13.75C20.0833 12.9166 21.3333 12.5 23.4167 12.5H27.5833C29.4583 12.5 30.9167 12.9166 31.5417 13.5416C32.1667 14.375 31.75 15.8333 31.75 15.8333L30.7083 19.7916C29.0417 19.1666 27.375 18.75 25.5 18.75C23.625 18.75 21.9583 19.1666 20.5 19.7916Z" />
</svg>
