<svg width="25" height="34" viewBox="0 0 25 34" fill="none" xmlns="http://www.w3.org/2000/svg">
<path d="M21.25 14.2917L22.5 9.29168C22.7083 8.66668 23.5417 5.75001 21.875 3.25001C20.625 1.37501 18.125 0.333344 14.5833 0.333344H10.4167C6.875 0.333344 4.375 1.37501 3.125 3.25001C1.45833 5.75001 2.29167 8.45834 2.5 9.29168L3.75 14.2917C1.45833 16.5833 0 19.7083 0 23.25C0 27.625 2.29167 31.375 5.625 33.6667H19.375C22.7083 31.375 25 27.625 25 23.25C25 19.7083 23.5417 16.5833 21.25 14.2917ZM7.5 11.7917L6.45833 8.25001V8.04168C6.45833 8.04168 6.04167 6.58334 6.66667 5.75001C7.08333 4.91668 8.33333 4.50001 10.4167 4.50001H14.5833C16.4583 4.50001 17.9167 4.91668 18.5417 5.54168C19.1667 6.37501 18.75 7.83334 18.75 7.83334L17.7083 11.7917C16.0417 11.1667 14.375 10.75 12.5 10.75C10.625 10.75 8.95833 11.1667 7.5 11.7917Z" />
</svg>
