<svg width="26" height="26" viewBox="0 0 26 26" fill="none" xmlns="http://www.w3.org/2000/svg">
<path d="M9.75 2.70831V1.08331H16.25V2.70831H9.75ZM12.1875 14.8146H13.8125V8.5854H12.1875V14.8146ZM13 23.8062C11.6639 23.8062 10.4045 23.5489 9.22188 23.0344C8.03924 22.5198 7.00556 21.8201 6.12083 20.9354C5.23611 20.0507 4.53646 19.017 4.02188 17.8344C3.50729 16.6517 3.25 15.3923 3.25 14.0562C3.25 12.7201 3.50729 11.4607 4.02188 10.2781C4.53646 9.09547 5.23611 8.06178 6.12083 7.17706C7.00556 6.29234 8.03924 5.59269 9.22188 5.0781C10.4045 4.56352 11.6639 4.30623 13 4.30623C14.2097 4.30623 15.3472 4.50935 16.4125 4.9156C17.4778 5.32185 18.4257 5.88609 19.2563 6.60831L20.6375 5.22706L21.775 6.36456L20.3938 7.74581C21.0438 8.46803 21.599 9.34373 22.0594 10.3729C22.5198 11.4021 22.75 12.6298 22.75 14.0562C22.75 15.3923 22.4927 16.6517 21.9781 17.8344C21.4635 19.017 20.7639 20.0507 19.8792 20.9354C18.9944 21.8201 17.9608 22.5198 16.7781 23.0344C15.5955 23.5489 14.3361 23.8062 13 23.8062ZM13 22.1812C15.2569 22.1812 17.1753 21.3913 18.7552 19.8114C20.3351 18.2316 21.125 16.3132 21.125 14.0562C21.125 11.7993 20.3351 9.88088 18.7552 8.30102C17.1753 6.72116 15.2569 5.93123 13 5.93123C10.7431 5.93123 8.82465 6.72116 7.24479 8.30102C5.66493 9.88088 4.875 11.7993 4.875 14.0562C4.875 16.3132 5.66493 18.2316 7.24479 19.8114C8.82465 21.3913 10.7431 22.1812 13 22.1812Z" fill="white"/>
</svg>
