<svg width="45" height="45" viewBox="0 0 45 45" fill="none" xmlns="http://www.w3.org/2000/svg">
<path d="M25.7083 40.65L23.7833 38.725L30.2916 32.2166L12.7833 14.7083L6.27498 21.2166L4.34998 19.2916L6.91664 16.6333L4.34998 14.0666L8.24581 10.1708L6.32081 8.24581L8.24581 6.32081L10.2166 8.19998L14.0666 4.34998L16.6333 6.91664L19.2916 4.34998L21.2166 6.27498L14.7083 12.7833L32.2166 30.2916L38.725 23.7833L40.65 25.7083L38.0833 28.3666L40.65 30.9333L36.7083 34.875L38.6333 36.8L36.7083 38.725L34.7833 36.8L30.9333 40.65L28.3666 38.0833L25.7083 40.65Z" />
</svg>
