<svg width="161" height="153" viewBox="0 0 161 153" xmlns="http://www.w3.org/2000/svg">
<path d="M57.8792 1.48635C57.063 2.10823 56.6354 3.19651 55.6638 7.19984L54.42 12.1748L51.7382 13.6129C48.3179 15.4786 42.4489 19.9094 37.8237 24.1459L34.2479 27.4108L30.5944 27.6829C22.821 28.2659 13.7261 30.7922 8.78995 33.785C7.58506 34.5235 5.56397 36.1948 4.32022 37.5163C0.666705 41.403 -0.110638 44.9788 2.5712 45.6395C4.35909 46.0671 5.33077 45.5229 6.57452 43.3075C9.91709 37.4385 19.012 33.9016 33.6649 32.7356L36.7354 32.5024L39.6894 29.704C45.4417 24.1459 51.0774 19.9094 55.9358 17.4219C57.2185 16.8 58.4233 16.0227 58.6565 15.7506C59.1618 15.1676 61.8436 4.6346 61.8436 3.31311C61.8436 1.40862 59.395 0.281471 57.8792 1.48635Z" />
<path d="M101.1 1.01985C100.011 1.36965 99.1562 2.3802 99.1562 3.31301C99.1562 4.78996 101.877 15.2452 102.382 15.7505C102.654 15.9837 104.675 17.1109 106.93 18.2769C111.866 20.7644 116.258 23.8738 121.777 28.8488L125.897 32.5411L129.162 32.8132C139.345 33.5517 147.973 36.389 152.171 40.2757C152.754 40.8587 153.804 42.2579 154.425 43.3851C155.669 45.5228 156.641 46.0669 158.429 45.6394C161.149 44.9398 160.333 41.4029 156.602 37.3995C151.705 32.1525 143.737 28.9654 133.01 27.916C130.522 27.6439 128.307 27.3329 128.073 27.2163C127.84 27.0609 125.975 25.4673 123.954 23.7183C119.212 19.5206 114.237 15.9837 109.961 13.7294C106.191 11.7472 106.696 12.5245 104.986 5.76165C103.937 1.68059 102.926 0.436836 101.1 1.01985Z" />
<path d="M49.0174 29.4707C48.0846 30.4035 48.0069 32.2691 48.8619 33.1242C49.5615 33.8626 48.6287 33.6294 62.2322 36.6222L73.115 39.0709L75.9912 41.8304C79.7613 45.4839 80.0723 45.4839 83.8035 41.8693L86.6408 39.1486L98.6119 36.4668C107.279 34.5234 110.738 33.5906 111.088 33.0853C111.982 31.9193 111.71 29.9371 110.583 29.2375C109.65 28.6156 109.145 28.6933 96.9017 31.3751L84.1922 34.2125L82.2488 36.1169C81.1605 37.1664 80.1111 38.0214 79.9168 38.0214C79.7225 38.0214 78.673 37.1664 77.5848 36.1169L75.6414 34.2125L63.2816 31.4529C56.4799 29.9371 50.6498 28.6933 50.3389 28.6933C50.0279 28.6933 49.4449 29.0431 49.0174 29.4707Z" />
<path d="M78.984 61.2252C78.3621 61.7693 77.5459 64.218 75.6803 70.9808C72.9596 80.8142 72.3377 82.0969 69.617 83.4961C68.1789 84.2346 67.285 84.2734 50.883 84.2734H33.6648L28.8842 79.2207C26.2412 76.4223 23.676 74.0514 23.1707 73.9348C21.3439 73.4683 19.5172 75.4894 20.1779 77.2385C20.3334 77.666 22.9764 80.6588 26.0469 83.8847L31.6049 89.7537L50.5332 89.6371C68.9563 89.5205 69.4615 89.4816 71.2494 88.6654C73.6592 87.5771 76.4965 84.8953 77.5459 82.7187C78.0512 81.7471 78.8285 79.4928 79.3338 77.666C79.8391 75.8392 80.3444 74.2068 80.4998 74.0514C80.6553 73.8959 81.2383 75.606 81.8602 77.8992C83.1428 82.6799 84.4643 84.9342 87.3016 87.0719C90.7608 89.7148 90.7996 89.7148 112.526 89.7148H131.999L137.557 84.0014C140.589 80.8142 143.193 77.8603 143.309 77.3551C143.931 75.023 142.143 73.2351 140.083 74.168C139.5 74.44 136.974 76.8109 134.525 79.4539L130.056 84.2346H111.438L92.8207 84.2734L91.1494 83.3017C90.1389 82.7187 89.0895 81.6693 88.5453 80.6588C88.0401 79.7648 86.602 75.2562 85.3582 70.6699C83.9201 65.3062 82.8319 62.0025 82.3266 61.4195C81.3549 60.409 80.1112 60.3312 78.984 61.2252Z" />
<path d="M22.7432 91.5805C21.1885 92.591 21.6161 96.7498 24.2979 106.467C26.319 113.812 28.068 118.166 32.9264 127.882L37.3573 136.744V143.118C37.3573 147.005 37.5127 149.92 37.7848 150.464C38.6788 152.408 41.3995 152.602 42.3711 150.775C42.6432 150.309 42.7987 147.122 42.7987 142.73V135.462L38.601 127.261C36.269 122.752 33.6649 117.311 32.771 115.173C31.2163 111.325 28.1846 101.453 28.4956 101.142C28.5733 101.064 30.0503 101.608 31.7604 102.347L34.8309 103.668L35.103 106C35.5694 110.276 38.9508 116.611 43.1485 121.081C44.4311 122.441 44.9752 122.752 46.0635 122.752C47.0352 122.752 47.5793 122.519 48.0069 121.897C48.9397 120.575 48.7454 119.409 47.3461 117.816C45.053 115.173 43.6926 113.268 42.1768 110.509C40.7387 107.944 40.661 107.594 40.5833 104.173C40.5444 102.152 40.3112 100.326 40.078 100.015C39.8448 99.7037 38.018 98.9264 36.0747 98.2656C31.4883 96.7498 28.8454 95.234 27.0186 93.0186C25.8526 91.6582 25.2696 91.2695 24.3368 91.2695C23.7149 91.2695 22.9764 91.425 22.7432 91.5805Z" />
<path d="M135.614 93.3683C133.32 95.5837 130.289 96.983 124.381 98.6154C120.494 99.7037 120.378 99.898 120.494 103.824C120.572 106.894 120.494 107.205 119.017 110.12C118.162 111.83 116.335 114.629 114.936 116.3C112.293 119.487 111.943 120.42 112.993 121.897C114.042 123.413 115.908 123.063 117.89 120.964C122.166 116.417 125.469 110.198 125.858 105.961L126.091 103.746L128.151 103.124C129.278 102.813 130.988 102.191 131.96 101.764C132.971 101.336 133.748 101.142 133.748 101.297C133.748 101.919 131.105 109.42 129.706 112.763C127.529 117.971 125.43 122.013 121.66 128.077C116.646 136.161 117.035 134.878 117.035 143.079C117.035 149.493 117.113 150.348 117.735 151.164C118.745 152.369 120.766 152.369 121.777 151.164C122.399 150.348 122.476 149.493 122.476 143.546V136.822L126.208 130.875C131.805 121.858 134.914 115.056 138.801 103.318C141.444 95.2339 141.793 93.5238 140.977 92.28C139.85 90.531 138.218 90.8808 135.614 93.3683Z" />
<path d="M78.0514 114.512C77.4684 115.134 77.3906 116.572 77.3906 126.872C77.3906 133.246 77.5461 138.687 77.7016 138.921C78.0902 139.504 79.5283 140.242 80.2668 140.242C80.6166 140.242 81.2385 139.892 81.666 139.465C82.4045 138.726 82.4434 138.182 82.4434 126.911C82.4434 115.95 82.4045 115.056 81.7438 114.473C80.7721 113.618 78.8287 113.657 78.0514 114.512Z" />
<path d="M78.0514 143.662C77.1963 144.634 77.2352 146.578 78.0903 147.355C79.062 148.21 81.0053 148.171 81.7827 147.316C82.6377 146.344 82.5989 144.401 81.7438 143.624C80.7721 142.769 78.8287 142.807 78.0514 143.662Z" />
</svg>
