<svg width="200" height="200" viewBox="0 0 229 229" xmlns="http://www.w3.org/2000/svg">
<path d="M96.3176 50.0308V55.0937L85.9675 61.7268L75.6494 68.3918H73.0859C64.5303 68.4239 56.936 72.8459 53.5073 79.7673C51.2002 84.4777 50.1748 89.5726 50.1748 96.3979C50.1748 99.8907 49.7902 102.775 46.8102 120.975L43.4776 141.611L41.3948 145.713C37.7418 152.923 36.1076 158.883 34.3452 171.252C32.1022 186.889 29.763 205.41 30.0193 205.667C30.0834 205.763 30.8845 205.923 31.7817 206.019L33.3839 206.243L33.8005 202.783C34.4093 197.367 37.2932 175.578 38.1904 169.489C39.6324 159.652 42.1318 151.417 45.4964 145.489L46.9384 142.989L49.5339 126.583C50.9758 117.579 52.2576 109.92 52.3858 109.6C52.578 109.087 52.7382 109.183 53.4752 110.433C54.8531 112.804 55.1415 112.9 56.5835 111.49L57.8332 110.273L57.0641 109.279C55.8785 107.709 54.3725 104.281 53.9879 102.198C53.5073 99.6984 53.7957 91.0466 54.4686 88.0986C55.526 83.2921 56.8719 80.312 59.0829 77.9088C61.1016 75.7298 63.8574 73.9995 66.9656 72.942L69.5611 72.0768H83.6603C97.6954 72.0768 97.7595 72.0768 99.618 72.8138C100.74 73.2625 102.214 74.2558 103.303 75.2812L105.13 76.9795L106.475 75.9862C107.244 75.4414 107.853 74.9287 107.853 74.8005C107.853 74.1276 103.752 70.7951 101.861 69.8979L99.6821 68.8725L90.9022 68.7123L82.0902 68.552L89.7807 63.6173C93.9784 60.9257 97.9197 58.3622 98.4965 57.9136L99.5219 57.1445V51.0562V45H97.9197H96.3176V50.0308Z" />
<path d="M124.196 50.7038C124.196 55.1258 124.292 56.5357 124.645 57.0484C124.901 57.4009 128.906 60.1566 133.553 63.1367L141.948 68.552L133.168 68.7123L124.356 68.8725L122.177 69.8979C120.287 70.7951 116.185 74.1276 116.185 74.8005C116.185 74.9287 116.794 75.4414 117.563 75.9862L118.909 76.9795L120.735 75.2812C121.857 74.2238 123.299 73.2945 124.42 72.8459C126.247 72.1089 126.599 72.1089 139.353 71.9807C154.061 71.8525 155.342 71.9807 159.7 74.0315C164.122 76.1464 167.134 79.7673 168.737 84.8943C170.178 89.6367 170.819 98.1924 170.018 102.39C169.634 104.345 168.128 107.741 166.974 109.279L166.205 110.273L167.455 111.49C168.897 112.9 169.185 112.804 170.595 110.433C171.396 109.023 171.428 109.023 171.652 109.76C171.781 110.177 173.062 117.835 174.504 126.743L177.1 142.989L178.542 145.489C181.906 151.417 184.406 159.652 185.848 169.489C186.745 175.578 189.629 197.367 190.238 202.783L190.654 206.243L192.224 206.051C193.09 205.955 193.891 205.795 193.987 205.731C194.243 205.474 190.782 178.686 189.052 167.407C187.642 158.146 184.886 149.334 181.65 143.726L180.432 141.611L177.164 120.943C174.312 103.031 173.863 99.6023 173.735 95.3084C173.575 89.7329 172.998 86.2401 171.588 82.2987C168.512 73.8713 161.495 69.0327 151.433 68.4239L148.068 68.2316L137.879 61.6627L127.721 55.1258V50.0629V45H125.958H124.196V50.7038Z" />
<path d="M110.415 103.64V114.214L108.236 115.624C104.07 118.316 103.462 118.412 92.022 118.316L82.0244 118.22L79.6212 117.034C77.8908 116.169 76.1925 114.887 73.4047 112.324L69.5595 108.799L68.2777 110.081L66.996 111.362L68.7904 113.029L70.6169 114.695L66.8358 132.639C64.785 142.509 62.8303 152.122 62.5419 154.012C61.837 158.466 60.1387 165.388 58.4724 170.515C54.8515 181.666 50.7499 190.446 44.3412 200.796C42.9633 203.007 41.8418 204.93 41.8418 205.026C41.8418 205.25 44.1489 206.82 44.5014 206.82C44.8218 206.82 48.2826 201.533 50.6217 197.399C57.9597 184.614 64.08 167.823 66.0667 154.91C66.6756 150.872 72.3793 123.475 72.5395 123.667C72.6357 123.731 73.3727 126.519 74.2058 129.819C75.071 133.12 76.5129 138.215 77.4102 141.131L79.0764 146.418L79.4289 166.029L79.7493 185.607L78.5958 187.818C76.3848 192.08 74.8467 197.656 74.366 203.231L74.1417 205.859H75.9041H77.6345L78.019 202.622C78.4676 198.521 79.3328 195.156 80.8068 191.632C81.4476 190.125 82.0244 188.876 82.0565 188.876C82.1206 188.876 85.357 190.702 89.2342 192.913C93.1436 195.124 96.4761 196.823 96.6363 196.726C96.9888 196.502 98.3346 194.003 98.1744 193.843C98.1103 193.811 94.7137 191.856 90.6442 189.517L83.178 185.319V180.769C83.178 178.269 83.0178 169.265 82.8576 160.774L82.5371 145.361L81.2233 141.419C79.1405 135.01 77.4742 128.794 75.3594 119.277C75.2632 118.828 75.4555 118.861 76.4168 119.533C77.0897 119.95 78.4676 120.623 79.525 121.039C81.3195 121.712 81.9603 121.744 91.6695 121.841C104.263 121.969 105.673 121.744 110.095 118.732L111.921 117.483L114.1 118.893C118.586 121.776 118.33 121.744 131.243 121.744C142.234 121.744 142.683 121.712 144.509 121.039C145.567 120.623 146.977 119.95 147.682 119.469C148.739 118.764 148.899 118.732 148.739 119.245C148.643 119.565 148.13 121.841 147.554 124.308C146.496 129.018 143.708 139.016 142.33 142.989L141.529 145.296L141.177 164.939C140.985 175.706 140.76 184.71 140.696 184.902C140.664 185.095 137.203 187.177 133.038 189.549L125.508 193.843L126.341 195.285C126.789 196.086 127.206 196.791 127.27 196.855C127.334 196.919 130.538 195.124 134.416 192.913C138.293 190.702 141.625 188.876 141.754 188.876C142.106 188.876 143.708 192.401 144.477 194.804C145.246 197.143 145.919 200.54 146.176 203.392L146.4 205.859H148.162H149.925L149.7 203.071C149.252 197.72 147.778 192.433 145.407 187.754L144.285 185.511L144.638 165.901L144.99 146.29L146.784 140.618C147.746 137.51 149.22 132.287 150.053 129.018L151.559 123.09L154.347 136.356C155.885 143.662 157.391 151.193 157.679 153.147C159.698 166.99 165.786 184.133 173.413 197.399C175.752 201.533 179.213 206.82 179.533 206.82C180.014 206.82 182.193 205.218 182.193 204.866C182.193 204.705 181.488 203.52 180.622 202.238C171.522 188.684 163.607 168.432 161.236 152.346C160.948 150.488 159.089 141.259 157.103 131.838L153.45 114.695L155.18 113.093L156.91 111.491L155.917 110.273C155.372 109.632 154.731 109.087 154.539 109.087C154.315 109.087 152.648 110.465 150.822 112.163C146.688 115.913 145.375 116.842 142.747 117.803C140.792 118.508 140.312 118.54 131.404 118.54C120.701 118.54 120.06 118.412 115.959 115.752L113.619 114.214V103.64V93.0654H112.017H110.415V103.64Z" />
<path d="M79.6538 111.362C79.2372 112.228 78.9808 112.997 79.0449 113.061C79.1411 113.157 80.4228 113.798 81.9609 114.471L84.7167 115.752L85.4216 114.182C85.8382 113.317 86.0945 112.548 86.0304 112.484C85.9343 112.388 84.6526 111.747 83.1145 111.074L80.3587 109.792L79.6538 111.362Z" />
<path d="M140.857 111.074C139.383 111.747 138.102 112.388 138.005 112.484C137.781 112.708 139.191 115.496 139.544 115.496C140.216 115.496 145.023 113.125 145.023 112.804C144.991 112.612 144.671 111.875 144.286 111.138L143.581 109.824L140.857 111.074Z" />
<path d="M92.0878 125.365C91.4149 125.686 90.8701 126.07 90.8701 126.263C90.8701 126.455 92.0237 129.211 93.4336 132.383L95.965 138.119L95.2921 140.17C94.0424 144.111 94.1386 150.648 95.5485 154.813C95.965 156.031 95.965 156.384 95.5485 157.793C94.6192 160.87 94.2347 165.452 94.6513 168.336C94.9397 170.419 96.1253 174.136 96.4777 174.136C96.5098 174.136 97.2468 173.751 98.0479 173.303C99.2015 172.662 99.5219 172.341 99.3296 171.925C98.2081 169.329 98.112 168.688 98.144 165.324C98.144 162.632 98.3363 161.094 98.9771 158.787L99.7782 155.775L98.9451 153.66C98.2081 151.769 98.112 151.096 98.0799 147.379C98.0799 143.855 98.2081 142.861 98.849 140.81C99.2655 139.497 99.618 138.151 99.586 137.862C99.5539 136.901 93.9783 124.789 93.6259 124.821C93.4336 124.821 92.7286 125.077 92.0878 125.365Z" />
<path d="M129.513 125.814C129.289 126.391 127.975 129.371 126.629 132.415L124.162 137.959L124.771 139.785C126.437 144.559 126.533 149.366 125.059 153.628L124.226 156.031L124.835 157.986C126.277 162.632 126.373 167.471 125.123 170.739C124.803 171.636 124.514 172.405 124.514 172.437C124.514 172.502 127.43 174.136 127.558 174.136C127.591 174.136 127.943 173.431 128.295 172.566C129.834 169.073 129.962 164.138 128.68 158.819L128.039 156.127L128.744 153.852C129.802 150.552 129.802 143.983 128.776 140.426L128.039 137.959L130.603 132.255C132.013 129.114 133.166 126.391 133.166 126.231C133.166 125.942 130.795 124.789 130.218 124.789C130.09 124.789 129.769 125.269 129.513 125.814Z" />
<path d="M110.418 131.037V136.645H106.252H102.086V138.247V139.849H106.252H110.418V147.059V154.269H106.252H102.086V155.871V157.473H106.252H110.418V165.324V173.174H112.02H113.622V165.324V157.473H117.628H121.633V155.871V154.269H117.628H113.622V147.059V139.849H117.628H121.633V138.247V136.645H117.628H113.622V131.037V125.429H112.02H110.418V131.037Z" />
</svg>
